# xmcd CD database file
#
# Track frame offsets:
#	200
#	17000
#	42775
#	61167
#	82397
#	104707
#	126882
#	154145
#	165597
#	181095
#	214800
#	241532
#	267955
#
# Disc length: 3899 seconds
#
# Revision: 0
# Processed by: cddbd v1.5.2PL0 Copyright (c) Steve Scherf et al.
# Submitted via: CDex 1.70beta1
#
DISCID=aa0f390d
DTITLE=John Petters Dixilanders With Wild Bill Davidson, Art Hodges - Together Again
DYEAR=1900
DGENRE=Jazz
TTITLE0=Limehouse Blues
TTITLE1=Am I Blue
TTITLE2=My Monday Date
TTITLE3=Once In A While
TTITLE4=Rocking Chair
TTITLE5=Back In Your Own Back Yard
TTITLE6=Blues In The Night
TTITLE7=Grandpa's Spells
TTITLE8=Three Little Words
TTITLE9=Reunion Blues
TTITLE10=As Long As I Live
TTITLE11=I've Got The World On A String
TTITLE12=I Never Knew
EXTD=
EXTT0=
EXTT1=
EXTT2=
EXTT3=
EXTT4=
EXTT5=
EXTT6=
EXTT7=
EXTT8=
EXTT9=
EXTT10=
EXTT11=
EXTT12=
PLAYORDER=
